<svg width="24" height="24" viewBox="0 0 24 24" fill="none" xmlns="http://www.w3.org/2000/svg">
<path d="M12.0078 4.00098L14.0361 8.81934C14.328 9.51225 14.9837 9.97813 15.7275 10.0371L20.9854 10.4531L16.9893 13.835H16.9883C16.4157 14.3197 16.1618 15.086 16.3389 15.8193L17.5615 20.8848C17.5599 20.8857 17.5589 20.8872 17.5576 20.8877C17.5559 20.8869 17.5532 20.8858 17.5498 20.8838L13.041 18.1631C12.4014 17.7772 11.5986 17.7772 10.959 18.1631L6.4502 20.8838C6.44677 20.8858 6.4441 20.8869 6.44238 20.8877C6.44085 20.8871 6.43936 20.8859 6.4375 20.8848L7.66113 15.8193C7.8271 15.1321 7.61431 14.416 7.11523 13.9297L7.01172 13.835L3.01367 10.4531L8.27246 10.0371C9.01627 9.97814 9.67205 9.51246 9.96387 8.81934L11.9912 4.00098C11.9936 4.00054 11.9966 4 12 4C12.003 4 12.0056 4.00062 12.0078 4.00098Z" stroke="#02060A" stroke-width="2"/>
</svg>
